<svg width="35" height="32" viewBox="0 0 35 32" fill="none" xmlns="http://www.w3.org/2000/svg">
<path d="M1.25 6.3125H33.75C34.375 6.3125 35 5.76562 35 5.0625V1.9375C35 1.3125 34.375 0.6875 33.75 0.6875H1.25C0.546875 0.6875 0 1.3125 0 1.9375V5.0625C0 5.76562 0.546875 6.3125 1.25 6.3125ZM1.25 18.8125H33.75C34.375 18.8125 35 18.2656 35 17.5625V14.4375C35 13.8125 34.375 13.1875 33.75 13.1875H1.25C0.546875 13.1875 0 13.8125 0 14.4375V17.5625C0 18.2656 0.546875 18.8125 1.25 18.8125ZM1.25 31.3125H33.75C34.375 31.3125 35 30.7656 35 30.0625V26.9375C35 26.3125 34.375 25.6875 33.75 25.6875H1.25C0.546875 25.6875 0 26.3125 0 26.9375V30.0625C0 30.7656 0.546875 31.3125 1.25 31.3125Z" fill="#F1F1F1"/>
</svg>
