<svg width="29" height="29" viewBox="0 0 29 29" fill="none" xmlns="http://www.w3.org/2000/svg">
<path d="M19.6562 14L27.4688 6.1875C28.4844 5.25 28.4844 3.6875 27.4688 2.75L25.75 1.03125C24.8125 0.015625 23.25 0.015625 22.3125 1.03125L14.5 8.84375L6.60938 1.03125C5.67188 0.015625 4.10938 0.015625 3.17188 1.03125L1.45312 2.75C0.4375 3.6875 0.4375 5.25 1.45312 6.1875L9.26562 14L1.45312 21.8906C0.4375 22.8281 0.4375 24.3906 1.45312 25.3281L3.17188 27.0469C4.10938 28.0625 5.67188 28.0625 6.60938 27.0469L14.5 19.2344L22.3125 27.0469C23.25 28.0625 24.8125 28.0625 25.75 27.0469L27.4688 25.3281C28.4844 24.3906 28.4844 22.8281 27.4688 21.8906L19.6562 14Z" fill="#F1F1F1"/>
</svg>
