<svg width="39" height="39" viewBox="0 0 39 39" fill="none" xmlns="http://www.w3.org/2000/svg">
<path d="M32.5833 6.41667H6.91659C5.14719 6.41667 3.70825 7.85561 3.70825 9.625V28.875C3.70825 30.6444 5.14719 32.0833 6.91659 32.0833H32.5833C34.3526 32.0833 35.7916 30.6444 35.7916 28.875V9.625C35.7916 7.85561 34.3526 6.41667 32.5833 6.41667ZM32.5833 9.625V10.4447L19.7499 20.4275L6.91659 10.4463V9.625H32.5833ZM6.91659 28.875V14.5081L18.765 23.724C19.0459 23.9447 19.3927 24.0646 19.7499 24.0646C20.1071 24.0646 20.454 23.9447 20.7349 23.724L32.5833 14.5081L32.5865 28.875H6.91659Z" fill="#439BED"/>
</svg>
