<svg width="56" height="56" viewBox="0 0 56 56" fill="none" xmlns="http://www.w3.org/2000/svg">
<path d="M35.7747 20.2253C37.7959 20.1647 39.7141 19.3191 41.1224 17.8679C42.5307 16.4167 43.3184 14.474 43.3184 12.4518C43.3184 10.4297 42.5307 8.48698 41.1224 7.03579C39.7141 5.58459 37.7959 4.73901 35.7747 4.67834H20.2253C18.2041 4.73901 16.2859 5.58459 14.8776 7.03579C13.4693 8.48698 12.6816 10.4297 12.6816 12.4518C12.6816 14.474 13.4693 16.4167 14.8776 17.8679C16.2859 19.3191 18.2041 20.1647 20.2253 20.2253C18.1864 20.2607 16.2429 21.0954 14.8134 22.5498C13.384 24.0042 12.583 25.9619 12.583 28.0012C12.583 30.0404 13.384 31.9981 14.8134 33.4525C16.2429 34.9069 18.1864 35.7417 20.2253 35.777C18.1963 35.8267 16.2672 36.6677 14.8497 38.1203C13.4323 39.5729 12.6388 41.5221 12.6388 43.5517C12.6388 45.5813 13.4323 47.5305 14.8497 48.9831C16.2672 50.4357 18.1963 51.2766 20.2253 51.3263C22.2873 51.3251 24.2645 50.5053 25.7223 49.047C27.1801 47.5887 27.9994 45.6113 28 43.5493V20.2253H35.7747Z" fill="#439BED"/>
<path d="M35.7747 35.7747C40.0685 35.7747 43.5493 32.2938 43.5493 28C43.5493 23.7062 40.0685 20.2253 35.7747 20.2253C31.4808 20.2253 28 23.7062 28 28C28 32.2938 31.4808 35.7747 35.7747 35.7747Z" fill="#439BED"/>
</svg>
