<svg width="56" height="56" viewBox="0 0 56 56" fill="none" xmlns="http://www.w3.org/2000/svg">
<path d="M54.9424 25.5024L30.4928 1.05406C29.8147 0.378992 28.897 0 27.9403 0C26.9836 0 26.0658 0.378992 25.3878 1.05406L20.322 6.12634L26.7599 12.5682C27.5195 12.3115 28.3358 12.2728 29.1163 12.4566C29.8967 12.6403 30.61 13.0392 31.1754 13.6078C31.7407 14.1764 32.1354 14.8921 32.3147 15.6737C32.494 16.4553 32.4507 17.2716 32.1898 18.0298L38.3897 24.2392C39.3076 23.9171 40.3078 23.917 41.2258 24.2389C42.1438 24.5608 42.9249 25.1855 43.4408 26.0104C43.9566 26.8353 44.1764 27.8113 44.0641 28.7777C43.9517 29.7441 43.5139 30.6436 42.8226 31.3281C41.1452 33.0086 38.4373 33.0086 36.7571 31.3281C36.1603 30.7305 35.7526 29.9705 35.5847 29.1427C35.4169 28.3149 35.4964 27.456 35.8134 26.6731L30.0055 20.8951V36.1231C30.4144 36.322 30.8064 36.5964 31.1452 36.9353C31.9459 37.7418 32.3952 38.8321 32.3952 39.9686C32.3952 41.1051 31.9459 42.1955 31.1452 43.0019C30.7457 43.4021 30.2713 43.7196 29.7489 43.9363C29.2266 44.1529 28.6667 44.2644 28.1013 44.2644C27.5358 44.2644 26.9759 44.1529 26.4536 43.9363C25.9313 43.7196 25.4568 43.4021 25.0573 43.0019C24.6587 42.6043 24.3424 42.132 24.1266 41.612C23.9108 41.092 23.7997 40.5345 23.7997 39.9714C23.7997 39.4084 23.9108 38.8509 24.1266 38.3308C24.3424 37.8108 24.6587 37.3385 25.0573 36.9409C25.483 36.5208 25.959 36.2015 26.4687 35.9915V20.615C25.9451 20.4006 25.4692 20.0845 25.0685 19.685C24.6677 19.2856 24.3501 18.8107 24.134 18.2877C23.9179 17.7648 23.8075 17.2041 23.8093 16.6383C23.8111 16.0724 23.925 15.5125 24.1444 14.9909L17.8157 8.63027L1.05012 25.3848C-0.350041 26.7964 -0.350041 29.0818 1.05012 30.4935L25.4998 54.9418C25.8343 55.2772 26.2317 55.5434 26.6692 55.7249C27.1067 55.9065 27.5758 56 28.0495 56C28.5232 56 28.9922 55.9065 29.4297 55.7249C29.8672 55.5434 30.2647 55.2772 30.5992 54.9418L54.934 30.6055C55.271 30.2718 55.5387 29.8747 55.7217 29.4371C55.9046 28.9995 55.9992 28.53 56 28.0557C56.0008 27.5814 55.9077 27.1116 55.7262 26.6734C55.5447 26.2352 55.2783 25.8372 54.9424 25.5024" fill="#439BED"/>
</svg>
