<svg width="39" height="41" viewBox="0 0 39 41" fill="none" xmlns="http://www.w3.org/2000/svg">
<path fill-rule="evenodd" clip-rule="evenodd" d="M19.2917 3.342C10.4544 3.342 3.29175 10.803 3.29175 20.0086C3.29175 27.3711 7.87485 33.619 14.2338 35.8247C15.0342 35.9751 15.323 35.4621 15.323 35.0209C15.323 34.6249 15.3102 33.5755 15.3054 32.1869C10.8538 33.1929 9.91375 29.9511 9.91375 29.9511C9.18866 28.0261 8.13794 27.5131 8.13794 27.5131C6.68616 26.4788 8.24862 26.5022 8.24862 26.5022C9.856 26.6191 10.6982 28.2199 10.6982 28.2199C12.1259 30.7666 14.4455 30.0313 15.3535 29.6052C15.4995 28.5274 15.9165 27.7922 16.3721 27.3761C12.8205 26.9567 9.086 25.5263 9.086 19.138C9.086 17.3216 9.71002 15.8311 10.7287 14.6681C10.5666 14.2453 10.0132 12.5492 10.8875 10.2566C10.8875 10.2566 12.2302 9.80712 15.2861 11.9627C16.5912 11.5929 17.9375 11.4041 19.2901 11.4013C20.6427 11.4035 21.9891 11.5923 23.2941 11.9627C26.3516 9.80545 27.6927 10.2566 27.6927 10.2566C28.567 12.5492 28.0184 14.2453 27.8515 14.6681C28.8782 15.8311 29.4942 17.32 29.4942 19.138C29.4942 25.543 25.7565 26.95 22.192 27.3627C22.7615 27.8774 23.2749 28.8934 23.2749 30.4474C23.2749 32.6765 23.2556 34.4745 23.2556 35.0209C23.2556 35.4671 23.5411 35.9851 24.3577 35.8214C30.7134 33.6123 35.2917 27.3694 35.2917 20.0086C35.2917 10.803 28.1291 3.342 19.2917 3.342Z" fill="#439BED"/>
</svg>
