<svg width="39" height="39" viewBox="0 0 39 39" fill="none" xmlns="http://www.w3.org/2000/svg">
<path d="M19.7485 11.834C17.7812 11.834 15.8945 12.6155 14.5034 14.0065C13.1123 15.3976 12.3308 17.2843 12.3308 19.2516C12.3308 21.2189 13.1123 23.1056 14.5034 24.4967C15.8945 25.8878 17.7812 26.6693 19.7485 26.6693C21.7158 26.6693 23.6025 25.8878 24.9936 24.4967C26.3846 23.1056 27.1661 21.2189 27.1661 19.2516C27.1661 17.2843 26.3846 15.3976 24.9936 14.0065C23.6025 12.6155 21.7158 11.834 19.7485 11.834ZM19.7485 24.0689C18.4704 24.0689 17.2447 23.5612 16.341 22.6575C15.4373 21.7538 14.9296 20.5281 14.9296 19.25C14.9296 17.972 15.4373 16.7463 16.341 15.8425C17.2447 14.9388 18.4704 14.4311 19.7485 14.4311C21.0265 14.4311 22.2522 14.9388 23.156 15.8425C24.0597 16.7463 24.5674 17.972 24.5674 19.25C24.5674 20.5281 24.0597 21.7538 23.156 22.6575C22.2522 23.5612 21.0265 24.0689 19.7485 24.0689Z" fill="#439BED"/>
<path d="M27.4596 13.2905C28.4147 13.2905 29.1889 12.5163 29.1889 11.5612C29.1889 10.6062 28.4147 9.83195 27.4596 9.83195C26.5046 9.83195 25.7303 10.6062 25.7303 11.5612C25.7303 12.5163 26.5046 13.2905 27.4596 13.2905Z" fill="#439BED"/>
<path d="M33.4383 9.80308C33.067 8.84407 32.4994 7.97317 31.7721 7.24613C31.0448 6.51908 30.1737 5.95191 29.2145 5.58091C28.0922 5.15959 26.9064 4.93177 25.7078 4.90716C24.163 4.83978 23.6738 4.82053 19.7564 4.82053C15.839 4.82053 15.3369 4.82053 13.8049 4.90716C12.6072 4.93051 11.4223 5.15837 10.3014 5.58091C9.34203 5.95147 8.47069 6.5185 7.74331 7.2456C7.01594 7.9727 6.44858 8.84382 6.07765 9.80308C5.65625 10.9254 5.42895 12.1112 5.40551 13.3098C5.33653 14.853 5.31567 15.3423 5.31567 19.2612C5.31567 23.1786 5.31567 23.6775 5.40551 25.2127C5.42957 26.4126 5.65576 27.5965 6.07765 28.721C6.44962 29.6799 7.01753 30.5507 7.74508 31.2777C8.47263 32.0047 9.34384 32.5719 10.303 32.9432C11.4218 33.3814 12.6072 33.6256 13.8081 33.6651C15.3529 33.7324 15.8422 33.7533 19.7596 33.7533C23.677 33.7533 24.1791 33.7533 25.711 33.6651C26.9095 33.6407 28.0952 33.4134 29.2178 32.9929C30.1767 32.621 31.0475 32.0534 31.7747 31.3261C32.502 30.5989 33.0697 29.728 33.4415 28.7691C33.8634 27.6462 34.0896 26.4623 34.1137 25.2624C34.1826 23.7192 34.2035 23.23 34.2035 19.311C34.2035 15.392 34.2035 14.8947 34.1137 13.3595C34.095 12.144 33.8665 10.9408 33.4383 9.80308ZM31.4844 25.094C31.4741 26.0185 31.3054 26.9344 30.9855 27.8018C30.7446 28.4256 30.3758 28.9921 29.9028 29.4648C29.4299 29.9375 28.8632 30.306 28.2392 30.5466C27.3813 30.8649 26.4752 31.0336 25.5603 31.0455C24.0363 31.116 23.6064 31.1337 19.6986 31.1337C15.7877 31.1337 15.3882 31.1337 13.8354 31.0455C12.9209 31.0343 12.0152 30.8655 11.158 30.5466C10.5319 30.3075 9.96295 29.9397 9.48793 29.4669C9.01292 28.9941 8.64245 28.4268 8.40049 27.8018C8.08518 26.9437 7.91653 26.0386 7.90159 25.1245C7.83261 23.6005 7.81657 23.1706 7.81657 19.2628C7.81657 15.3535 7.81657 14.9541 7.90159 13.3996C7.91196 12.4757 8.0807 11.5603 8.40049 10.6934C8.88976 9.4277 9.89236 8.43151 11.158 7.94705C12.0156 7.62965 12.9211 7.46093 13.8354 7.44816C15.361 7.37918 15.7893 7.35993 19.6986 7.35993C23.608 7.35993 24.009 7.35993 25.5603 7.44816C26.4753 7.45917 27.3816 7.62794 28.2392 7.94705C28.8631 8.18812 29.4297 8.55696 29.9027 9.02992C30.3756 9.50287 30.7445 10.0695 30.9855 10.6934C31.3008 11.5515 31.4695 12.4566 31.4844 13.3707C31.5534 14.8963 31.5711 15.3246 31.5711 19.234C31.5711 23.1417 31.5711 23.562 31.5021 25.0956H31.4844V25.094Z" fill="#439BED"/>
</svg>
