<svg width="39" height="39" viewBox="0 0 39 39" fill="none" xmlns="http://www.w3.org/2000/svg">
<path d="M7.99356 11.5452C9.93203 11.5452 11.5035 9.97378 11.5035 8.03531C11.5035 6.09683 9.93203 4.52539 7.99356 4.52539C6.05509 4.52539 4.48364 6.09683 4.48364 8.03531C4.48364 9.97378 6.05509 11.5452 7.99356 11.5452Z" fill="#439BED"/>
<path d="M14.8176 14.2049V33.6779H20.8637V24.048C20.8637 21.507 21.3418 19.0463 24.4924 19.0463C27.5996 19.0463 27.6381 21.9514 27.6381 24.2085V33.6795H33.6874V23.0005C33.6874 17.7549 32.5581 13.7236 26.427 13.7236C23.4833 13.7236 21.5102 15.339 20.7033 16.8678H20.6215V14.2049H14.8176V14.2049ZM4.96484 14.2049H11.0206V33.6779H4.96484V14.2049Z" fill="#439BED"/>
</svg>
