<svg width="56" height="56" viewBox="0 0 56 56" fill="none" xmlns="http://www.w3.org/2000/svg">
<path d="M27.6687 51.5931C27.027 51.5931 26.4273 51.4204 25.8673 51.1218L20.1763 47.7431C19.3247 47.2694 19.7517 47.0968 20.0083 47.0104C21.1657 46.6254 21.3803 46.5414 22.5773 45.8601C22.708 45.7738 22.8783 45.8134 23.009 45.8998L27.3723 48.5131C27.545 48.5971 27.7597 48.5971 27.888 48.5131L44.9657 38.6268C45.1383 38.5428 45.2223 38.3701 45.2223 38.1554V18.4201C45.2223 18.2078 45.1383 18.0351 44.9657 17.9511L27.888 8.10676C27.7177 8.02043 27.503 8.02043 27.3723 8.10676L10.29 17.9488C10.1197 18.0328 10.0333 18.2498 10.0333 18.4178V38.1508C10.0333 38.3211 10.1197 38.5381 10.29 38.6221L14.9567 41.3218C17.4813 42.6004 19.068 41.1001 19.068 39.6068V20.1328C19.068 19.8761 19.2803 19.6171 19.5813 19.6171H21.7653C22.0173 19.6171 22.2787 19.8318 22.2787 20.1328V39.6091C22.2787 42.9901 20.44 44.9618 17.2293 44.9618C16.2447 44.9618 15.4747 44.9618 13.2907 43.8884L8.799 41.3241C8.25174 41.006 7.79756 40.5497 7.48186 40.0011C7.16617 39.4524 7.00001 38.8304 7 38.1974V18.4621C7 17.1788 7.68367 15.9794 8.799 15.3378L25.8697 5.45143C26.4238 5.15506 27.0426 5 27.671 5C28.2994 5 28.9182 5.15506 29.4723 5.45143L46.5453 15.3378C47.663 15.9771 48.3443 17.1788 48.3443 18.4621V38.1974C48.3443 39.4784 47.6607 40.6778 46.5453 41.3241L29.4723 51.2081C28.91 51.4648 28.2683 51.5931 27.6687 51.5931ZM32.9327 38.0224C25.4427 38.0224 23.9027 34.5971 23.9027 31.6898C23.9027 31.4331 24.1173 31.1741 24.416 31.1741H26.642C26.8987 31.1741 27.111 31.3444 27.111 31.6034C27.454 33.8691 28.4363 34.9844 32.977 34.9844C36.5703 34.9844 38.115 34.1678 38.115 32.2428C38.115 31.1298 37.6833 30.3178 32.0787 29.7624C27.4143 29.2958 24.5047 28.2621 24.5047 24.5404C24.5047 21.0754 27.4143 19.0198 32.2957 19.0198C37.772 19.0198 40.4693 20.9074 40.81 25.0118C40.8059 25.1503 40.7604 25.2844 40.6793 25.3968C40.593 25.4808 40.467 25.5671 40.3387 25.5671H38.115C38.0051 25.5648 37.8991 25.5259 37.8137 25.4566C37.7284 25.3873 37.6685 25.2915 37.6437 25.1844C37.128 22.8231 35.8027 22.0578 32.2957 22.0578C28.3547 22.0578 27.8833 23.4274 27.8833 24.4541C27.8833 25.6931 28.4363 26.0781 33.7493 26.7641C39.0133 27.4478 41.496 28.4324 41.496 32.1168C41.4493 35.8851 38.3717 38.0224 32.9327 38.0224Z" fill="#439BED"/>
</svg>
