<svg width="51" height="24" viewBox="0 0 51 24" fill="none" xmlns="http://www.w3.org/2000/svg">
<path d="M0.411121 23.9944H4.40866C4.495 23.9953 4.57873 23.9651 4.6443 23.9095C4.70986 23.8538 4.75279 23.7765 4.76512 23.6919L5.6563 19.1047H8.76266C10.063 19.1369 11.3604 18.9668 12.6074 18.6006C13.6178 18.2698 14.5402 17.7185 15.3064 16.9874C15.9945 16.375 16.5716 15.6504 17.0124 14.845C17.4483 14.0571 17.7576 13.2067 17.929 12.3245C18.1995 11.3997 18.246 10.4248 18.0646 9.47887C17.8832 8.53294 17.4791 7.64267 16.885 6.8803C16.1968 6.18796 15.3637 5.6532 14.4443 5.31356C13.525 4.97392 12.5417 4.83765 11.5635 4.91432H3.92488C3.83325 4.9184 3.74569 4.95297 3.67638 5.01244C3.60707 5.0719 3.56005 5.15278 3.54295 5.24198L0.0291904 23.5407C-0.00973013 23.6465 -0.00973013 23.7625 0.0291904 23.8684C0.0777764 23.9184 0.137923 23.9561 0.204454 23.978C0.270985 24 0.341908 24.0056 0.411121 23.9944ZM7.66779 8.4682H10.214C10.6984 8.40378 11.1909 8.43523 11.663 8.5607C12.135 8.68617 12.5772 8.90318 12.9639 9.19914C13.3967 9.65283 13.4731 10.5098 13.244 11.7196C13.1163 12.802 12.6015 13.8034 11.7926 14.5426C10.7842 15.1746 9.59613 15.4664 8.40619 15.3743H6.36923L7.66779 8.4682ZM32.6206 6.07374C31.2421 5.07056 29.5353 4.61222 27.8337 4.78829H24.8037L25.644 0.352239C25.6688 0.301121 25.6817 0.245127 25.6817 0.188407C25.6817 0.131687 25.6688 0.0756934 25.644 0.0245753C25.5536 -0.00819175 25.4543 -0.00819175 25.3639 0.0245753H21.3664C21.28 0.0236992 21.1963 0.0538786 21.1307 0.109507C21.0652 0.165136 21.0222 0.242431 21.0099 0.327033L17.4961 18.651C17.4716 18.6977 17.4588 18.7495 17.4588 18.8022C17.4588 18.8548 17.4716 18.9067 17.4961 18.9534C17.5262 18.9999 17.5676 19.0382 17.6166 19.0646C17.6655 19.0911 17.7204 19.1048 17.7762 19.1047H21.6974C21.7877 19.1049 21.8747 19.0712 21.9408 19.0104C22.007 18.9495 22.0474 18.8661 22.0538 18.777L24.0144 8.51861H26.8407C27.9865 8.51861 28.3939 8.77066 28.5212 8.92189C28.6248 9.16961 28.6782 9.43511 28.6782 9.70324C28.6782 9.97137 28.6248 10.2369 28.5212 10.4846L26.968 18.651C26.9435 18.6977 26.9306 18.7495 26.9306 18.8022C26.9306 18.8548 26.9435 18.9067 26.968 18.9534C26.9996 18.9984 27.0414 19.0355 27.09 19.0618C27.1386 19.088 27.1927 19.1027 27.2481 19.1047H31.2202C31.3118 19.1006 31.3993 19.066 31.4687 19.0065C31.538 18.9471 31.585 18.8662 31.6021 18.777L33.2317 10.2073C33.4946 9.52397 33.5765 8.78537 33.4695 8.06182C33.3625 7.33828 33.0703 6.65387 32.6206 6.07374V6.07374ZM44.1294 4.78829H36.1598C36.113 4.78486 36.0659 4.79063 36.0213 4.80526C35.9767 4.81989 35.9355 4.84309 35.9 4.87354C35.8645 4.90399 35.8355 4.94108 35.8145 4.98268C35.7935 5.02428 35.7811 5.06958 35.7779 5.11596L32.0604 23.5407C32.0372 23.5923 32.0253 23.6481 32.0253 23.7045C32.0253 23.761 32.0372 23.8168 32.0604 23.8684C32.0946 23.9087 32.1375 23.941 32.186 23.9628C32.2345 23.9846 32.2873 23.9954 32.3405 23.9944H36.4908C36.5814 24.0017 36.6714 23.9745 36.7424 23.9182C36.8134 23.862 36.86 23.7811 36.8727 23.6919L37.8148 19.1047H41.0485C42.3905 19.1339 43.7294 18.9639 45.0206 18.6006C46.1323 18.2944 47.1595 17.7429 48.0251 16.9874C48.7359 16.3768 49.3383 15.6527 49.8074 14.845C50.2515 14.0583 50.5693 13.208 50.7495 12.3245C51.0271 11.3989 51.0748 10.4206 50.8886 9.47273C50.7024 8.5249 50.2878 7.63557 49.6801 6.8803C48.9602 6.15846 48.0921 5.59813 47.1344 5.2372C46.1768 4.87628 45.152 4.72319 44.1294 4.78829V4.78829ZM45.708 11.77C45.5557 12.8614 45.0138 13.8628 44.1803 14.593C43.1355 15.2279 41.9143 15.5191 40.692 15.4247H38.6551L40.03 8.4682H42.5762C43.594 8.34472 44.6215 8.60573 45.4534 9.19914C45.8608 9.65283 45.8608 10.5098 45.708 11.77V11.77Z" fill="#439BED"/>
</svg>
