<svg width="56" height="56" viewBox="0 0 56 56" fill="none" xmlns="http://www.w3.org/2000/svg">
<path d="M28 30.4034C30.3003 30.4034 32.165 28.5386 32.165 26.2384C32.165 23.9381 30.3003 22.0734 28 22.0734C25.6997 22.0734 23.835 23.9381 23.835 26.2384C23.835 28.5386 25.6997 30.4034 28 30.4034Z" fill="#439BED"/>
<path d="M16.338 34.5193L15.4163 34.2837C8.57033 32.5547 4.64333 29.6147 4.64333 26.229C4.64333 22.841 8.57267 19.9033 15.4163 18.1743L16.338 17.941L16.597 18.8533C17.2889 21.242 18.1755 23.5699 19.2477 25.8137L19.446 26.229L19.2477 26.6443C18.1743 28.8913 17.2853 31.22 16.597 33.6093L16.338 34.5193ZM14.9917 20.2977C9.79067 21.763 6.59633 23.9983 6.59633 26.229C6.59633 28.455 9.78833 30.6927 14.9917 32.1557C15.6287 30.1303 16.3987 28.1493 17.29 26.229C16.3922 24.3055 15.6244 22.3239 14.9917 20.2977ZM39.6597 34.5193L39.403 33.6047C38.7092 31.2156 37.822 28.887 36.75 26.642L36.5517 26.229L36.75 25.8113C37.8233 23.569 38.7077 21.238 39.403 18.8487L39.6597 17.9387L40.5813 18.172C47.4297 19.901 51.3543 22.8387 51.3543 26.229C51.3543 29.617 47.4273 32.5547 40.5813 34.2837L39.6597 34.5193ZM38.703 26.229C39.6363 28.2497 40.4133 30.2377 41.006 32.1557C46.2093 30.6927 49.4037 28.455 49.4037 26.229C49.4037 23.9983 46.2117 21.7653 41.006 20.2977C40.3696 22.3233 39.6003 24.3047 38.703 26.229Z" fill="#439BED"/>
<path d="M14.9777 20.2883L14.721 19.3783C12.7937 12.593 13.377 7.73264 16.324 6.03864C19.2057 4.37031 23.842 6.34198 28.6977 11.3236L29.3603 12.005L28.6977 12.684C26.973 14.4776 25.3968 16.4081 23.9843 18.4566L23.7207 18.8346L23.2633 18.872C20.7797 19.067 18.3161 19.4642 15.897 20.0596L14.9777 20.2883ZM18.669 7.38731C18.1463 7.38731 17.6843 7.50164 17.2947 7.72564C15.3627 8.83864 15.022 12.7143 16.352 17.9456C18.431 17.486 20.5287 17.157 22.6427 16.9726C23.8665 15.2368 25.2017 13.5821 26.6397 12.019C23.5993 9.06264 20.7293 7.38731 18.669 7.38731ZM37.3287 47.0166C34.5567 47.0166 30.996 44.926 27.3 41.132L26.6397 40.453L27.3 39.7763C29.0249 37.9798 30.6019 36.047 32.0157 33.9966L32.277 33.6233L32.7297 33.579C35.2142 33.3874 37.6787 32.9917 40.0983 32.396L41.02 32.1626L41.279 33.075C43.197 39.8556 42.616 44.723 39.6737 46.417C38.9593 46.8219 38.1498 47.0289 37.3287 47.0166ZM29.3603 40.4366C32.3983 43.393 35.2707 45.0706 37.3287 45.0706C37.8537 45.0706 38.3157 44.954 38.703 44.7323C40.6373 43.617 40.9803 39.7343 39.6457 34.503C37.569 34.965 35.469 35.2963 33.3503 35.4806C32.1316 37.2193 30.7987 38.8749 29.3603 40.4366Z" fill="#439BED"/>
<path d="M41.02 20.2883L40.0983 20.0573C37.6788 19.4601 35.2143 19.0629 32.7297 18.8697L32.277 18.83L32.0157 18.452C30.6039 16.4024 29.0267 14.4717 27.3 12.6793L26.6397 12.0003L27.3 11.3237C32.1533 6.34434 36.7873 4.37267 39.6737 6.03867C42.6183 7.735 43.204 12.5953 41.279 19.3783L41.02 20.2883ZM33.3503 16.9727C35.5763 17.171 37.6857 17.5047 39.6457 17.9457C40.978 12.7143 40.6373 8.83867 38.703 7.72334C36.7803 6.61034 33.1613 8.31367 29.3603 12.019C30.7977 13.5823 32.1323 15.2343 33.3503 16.9727ZM18.669 47.0167C17.848 47.0284 17.0386 46.8214 16.324 46.417C13.377 44.723 12.7937 39.858 14.7187 33.075L14.9707 32.1627L15.8923 32.396C18.1417 32.963 20.6197 33.362 23.261 33.579L23.7137 33.6233L23.9773 33.9967C25.3867 36.0453 26.964 37.9797 28.6907 39.7763L29.3533 40.453L28.6907 41.132C24.997 44.9283 21.4363 47.0167 18.669 47.0167ZM16.352 34.5053C15.022 39.7367 15.3627 43.6193 17.2947 44.7347C19.2197 45.8313 22.827 44.1397 26.6397 40.4367C25.2022 38.8731 23.8671 37.2184 22.6427 35.483C20.5265 35.2959 18.4251 34.9693 16.352 34.5053Z" fill="#439BED"/>
<path d="M28 35.7304C26.397 35.7304 24.752 35.6627 23.1 35.525L22.6427 35.4854L22.379 35.1074C21.4474 33.7678 20.5709 32.3908 19.7517 30.9797C18.9385 29.5648 18.1826 28.1178 17.486 26.642L17.29 26.229L17.486 25.8114C18.1837 24.3367 18.9373 22.89 19.7517 21.476C20.5613 20.0854 21.4457 18.6947 22.379 17.346L22.6427 16.9727L23.1 16.9307C26.3594 16.6577 29.6359 16.6577 32.8953 16.9307L33.348 16.975L33.6117 17.3484C35.4779 20.0288 37.1169 22.8604 38.5117 25.8137L38.7053 26.2314L38.5117 26.6444C37.1207 29.5997 35.4815 32.4316 33.6117 35.1097L33.348 35.4877L32.8953 35.5274C31.248 35.6604 29.6007 35.7304 28 35.7304ZM23.7207 33.621C26.6023 33.838 29.3977 33.838 32.277 33.621C33.8844 31.2672 35.3133 28.7963 36.5517 26.229C35.3177 23.6595 33.8886 21.1882 32.277 18.837C29.4291 18.6177 26.5686 18.6177 23.7207 18.837C22.1077 21.1874 20.6786 23.6587 19.446 26.229C20.687 28.7949 22.1158 31.2656 23.7207 33.621Z" fill="#439BED"/>
</svg>
