<svg width="43" height="39" viewBox="0 0 43 39" fill="none" xmlns="http://www.w3.org/2000/svg">
<path fill-rule="evenodd" clip-rule="evenodd" d="M4.26667 0H38.4C39.5316 0 40.6168 0.449522 41.417 1.24968C42.2171 2.04983 42.6667 3.13508 42.6667 4.26667V12.8C42.6667 13.9316 42.2171 15.0168 41.417 15.817C40.6168 16.6171 39.5316 17.0667 38.4 17.0667H4.26667C3.13508 17.0667 2.04983 16.6171 1.24968 15.817C0.449522 15.0168 0 13.9316 0 12.8V4.26667C0 3.13508 0.449522 2.04983 1.24968 1.24968C2.04983 0.449522 3.13508 0 4.26667 0ZM4.26667 4.26667V12.8H38.4V4.26667H4.26667ZM4.26667 21.3333H38.4C39.5316 21.3333 40.6168 21.7829 41.417 22.583C42.2171 23.3832 42.6667 24.4684 42.6667 25.6V34.1333C42.6667 35.2649 42.2171 36.3502 41.417 37.1503C40.6168 37.9505 39.5316 38.4 38.4 38.4H4.26667C3.13508 38.4 2.04983 37.9505 1.24968 37.1503C0.449522 36.3502 0 35.2649 0 34.1333V25.6C0 24.4684 0.449522 23.3832 1.24968 22.583C2.04983 21.7829 3.13508 21.3333 4.26667 21.3333ZM4.26667 25.6V34.1333H38.4V25.6H4.26667ZM36.2666 6.4H32V10.6667H36.2666V6.4ZM29.8666 6.4H25.6V10.6667H29.8666V6.4ZM36.2666 27.7333H32V32H36.2666V27.7333ZM29.8666 27.7333H25.6V32H29.8666V27.7333Z" fill="#439BED"/>
</svg>
