<svg width="39" height="39" viewBox="0 0 39 39" fill="none" xmlns="http://www.w3.org/2000/svg">
<path fill-rule="evenodd" clip-rule="evenodd" d="M29.8501 8.80182C28.516 7.45895 26.9287 6.39415 25.1801 5.66912C23.4316 4.94409 21.5565 4.57324 19.6636 4.57805C11.7262 4.57805 5.26463 11.038 5.26143 18.9787C5.26143 21.5164 5.92395 23.9933 7.18322 26.1782L5.14111 33.6391L12.7753 31.6355C14.8871 32.7851 17.2529 33.3878 19.6572 33.3889H19.6636C27.5994 33.3889 34.061 26.9289 34.0642 18.9883C34.0697 17.0961 33.7001 15.2217 32.9767 13.4732C32.2534 11.7248 31.1907 10.1371 29.8501 8.80182ZM19.6636 30.9586H19.6588C17.5149 30.9588 15.4104 30.382 13.5662 29.2886L13.1299 29.0288L8.5997 30.2174L9.80763 25.8012L9.5237 25.3488C8.32504 23.4405 7.69051 21.2322 7.69334 18.9787C7.69655 12.3791 13.0657 7.00997 19.6684 7.00997C21.2409 7.00647 22.7985 7.31489 24.251 7.91736C25.7035 8.51984 27.0221 9.40441 28.1304 10.5199C29.2447 11.63 30.1279 12.95 30.729 14.4036C31.3301 15.8571 31.6371 17.4154 31.6323 18.9883C31.6291 25.5878 26.26 30.9586 19.6636 30.9586ZM26.2295 21.9929C25.8685 21.8116 24.1008 20.9422 23.7703 20.8218C23.4414 20.7015 23.2024 20.6422 22.9618 21.0015C22.7212 21.3608 22.0314 22.1709 21.8212 22.4116C21.6111 22.6522 21.4009 22.6811 21.0416 22.5014C20.6823 22.3217 19.5225 21.9415 18.1477 20.716C17.0777 19.7615 16.3558 18.584 16.1457 18.2231C15.9355 17.8622 16.1232 17.668 16.3045 17.4884C16.4665 17.328 16.6638 17.0681 16.8435 16.8579C17.0232 16.6478 17.0825 16.4986 17.2028 16.258C17.3232 16.0174 17.2638 15.8072 17.1724 15.6275C17.0825 15.4463 16.3623 13.6753 16.0623 12.955C15.7719 12.2572 15.4752 12.3502 15.2538 12.3406C15.0245 12.3312 14.7951 12.327 14.5656 12.3278C14.3831 12.3324 14.2036 12.3747 14.0382 12.452C13.8729 12.5293 13.7253 12.6399 13.6047 12.7769C13.2742 13.1379 12.3454 14.0073 12.3454 15.7783C12.3454 17.5493 13.6352 19.261 13.8148 19.5016C13.9945 19.7422 16.3526 23.3757 19.962 24.9349C20.8218 25.3055 21.4924 25.5269 22.0137 25.6937C22.8752 25.968 23.6596 25.9279 24.2804 25.8365C24.9718 25.7338 26.4092 24.967 26.7091 24.1264C27.0091 23.2858 27.0091 22.5656 26.9193 22.4148C26.8294 22.264 26.5872 22.1725 26.2295 21.9929Z" fill="#439BED"/>
</svg>
